<svg xmlns="http://www.w3.org/2000/svg" xmlns:xlink="http://www.w3.org/1999/xlink" version="1.1" x="0px" y="0px" viewBox="0 0 226.871 289.16375" style="enable-background:new 0 0 226.871 231.331;" xml:space="preserve"><g><ellipse transform="matrix(0.9739 -0.2268 0.2268 0.9739 -0.4641 40.9585)" cx="178.008" cy="22.499" rx="22.495" ry="22.494"/><path d="M192.507,57.061c1.895-2.057,4.575-3.231,7.363-3.231c2.508,0,4.909,0.933,6.76,2.629   c4.063,3.728,4.338,10.067,0.609,14.13c-1.02,1.092-6.381,6.62-15.283,12.109c-1.461,0.899-2.942,1.743-4.438,2.543   c2.177,11.648,3.987,24.854,2.399,36.694c-0.108,1.839-0.129,3.446-0.066,4.862c-0.003,0.066-0.014,0.129-0.016,0.195   l-2.461,91.499c-0.186,6.901,5.259,12.646,12.16,12.832c0.114,0.003,0.229,0.005,0.342,0.005c6.748,0,12.308-5.378,12.49-12.165   l2.262-84.103c5.022-2.17,9.283-6.655,11.043-15.711c2.586-22.216,1.124-35.347-5.682-55.521   c-5.034-14.643-17.41-19.278-25.946-17.15c-6.742,1.681-10.497,9.465-10.365,17.566C189.285,60.483,192.471,57.102,192.507,57.061z   "/><ellipse transform="matrix(0.5577 -0.83 0.83 0.5577 -3.003 86.2386)" cx="79.419" cy="45.937" rx="22.494" ry="22.495"/><path d="M125.499,65.995c-15.166-8.833-0.333,15.167-4.531,21.007c-1.357,1.888-15.734,6.734-24.603,16.633   c-15.786-4.374-25.34-11.938-31.348-18.747c-1.833-2.094-3.312-4.121-4.503-5.969c1.355-6.373,0.036-12.798-4.668-16.066   c-7.226-5.018-20.441-5.077-30.344,6.826C11.979,86.124,5.953,97.881,0.487,119.569c-2.024,11.73,2.547,17.82,8.497,21.482   c1.839,4.703,4.451,13.494,4.442,25.476c-0.015,12.264-2.658,27.965-11.972,46.737c-3.074,6.182-0.553,13.684,5.628,16.758   c1.787,0.889,3.684,1.309,5.553,1.309c4.596,0.001,9.02-2.544,11.206-6.938c11.003-22.1,14.602-41.914,14.587-57.865   c-0.011-14.093-2.742-25.077-5.313-32.309c2.724-11.271,8.826-22.583,14.808-32.438c-0.24-0.267-0.477-0.534-0.705-0.797   c-8.969-10.268-12.012-19.666-12.531-21.445c-1.488-5.347,1.629-10.873,6.94-12.355c0.42-0.116,0.847-0.202,1.275-0.264   c0.469-0.067,0.94-0.105,1.412-0.105c4.442,0,8.396,2.984,9.615,7.26c0.053,0.162,0.127,0.384,0.242,0.697   c0.229,0.616,0.639,1.627,1.286,2.945c0.762,1.545,1.918,3.62,3.552,5.946c0.928,1.321,2.006,2.722,3.263,4.157   c7.849,8.894,18.563,15.107,31.896,18.543c2.413,0.622,4.902,1.164,7.486,1.603c5.36,0.9,9.007,5.935,8.233,11.288   c-0.011,0.077-0.014,0.152-0.026,0.229c-0.809,4.836-4.952,8.347-9.852,8.347c-0.546,0-1.105-0.046-1.659-0.138   c-2.905-0.481-5.672-1.061-8.321-1.716c0.912,4.265,2.915,8.953,6.343,14.104c21.462,32.25,59.118,9.215,63.628-7.25   c2.89-10.548,1.328-27.241-13.623-38.487c-4.659-0.338-9.333-1.121-13.95-2.35c-5.327-1.419-8.509-6.906-7.092-12.235   c1.166-4.375,5.137-7.43,9.656-7.43c0.868,0,1.735,0.114,2.581,0.34c0.864,0.229,1.73,0.431,2.596,0.618   c0.612-1.137,1.324-2.294,2.166-3.456C147.157,63.168,131.322,69.386,125.499,65.995z M156.666,124.995   c-5.333-16.333-15.667-28-15.667-28S157.333,104.995,156.666,124.995z"/><path d="M100.009,125.829c3.219,0,6.114-1.953,7.353-4.889c0.238-0.564,0.422-1.161,0.527-1.791   c0.729-4.357-2.211-8.479-6.568-9.211c-2.955-0.501-5.715-1.116-8.323-1.808c-16.319-4.333-26.108-12.058-32.232-18.993   c-1.03-1.178-1.939-2.33-2.759-3.447c-1.988-2.706-3.4-5.175-4.345-7.093c-0.667-1.354-1.108-2.437-1.365-3.128   c-0.13-0.348-0.212-0.598-0.257-0.735c-0.02-0.056-0.03-0.094-0.036-0.112c-1.205-4.229-5.603-6.693-9.841-5.512   c-0.335,0.094-0.655,0.213-0.967,0.345c-3.654,1.542-5.684,5.589-4.591,9.51c0.227,0.777,2.939,10.191,12.121,20.707   c0.092,0.106,0.196,0.214,0.29,0.32c8.012,9.101,21.027,18.785,40.645,23.828c2.864,0.736,5.866,1.375,9.017,1.896   C99.124,125.792,99.57,125.829,100.009,125.829z"/><path d="M127.267,80.27c-1.137,4.271,1.404,8.652,5.674,9.789c3.402,0.905,6.735,1.536,9.987,1.937   c2.96,0.365,5.853,0.541,8.662,0.541c14.438-0.008,26.531-4.438,35.535-9.351c1.327-0.725,2.59-1.459,3.78-2.191   c9.288-5.726,14.51-11.385,14.86-11.758c2.986-3.256,2.768-8.317-0.488-11.303c-3.252-2.982-8.303-2.771-11.291,0.475v-0.001   c-0.193,0.213-3.9,4.08-10.166,8.134c-0.648,0.42-1.315,0.841-2.019,1.261c-7.51,4.499-17.889,8.74-30.212,8.734   c-3.896,0-8.009-0.424-12.342-1.403c-0.725-0.164-1.454-0.339-2.191-0.535C132.787,73.46,128.405,76.001,127.267,80.27z"/></g></svg>