<svg id="nmgr-cf-svgs" aria-hidden="true" style="position: absolute; width: 0; height: 0; overflow: hidden;" version="1.1" xmlns="http://www.w3.org/2000/symbol" xmlns:xlink="http://www.w3.org/1999/xlink">
	<defs>
		<symbol id="nmgr-icon-users" xmlns="http://www.w3.org/2000/svg" viewBox="0 0 80.13 80.13">
			<path d="M48.355,17.922c3.705,2.323,6.303,6.254,6.776,10.817c1.511,0.706,3.188,1.112,4.966,1.112
		c6.491,0,11.752-5.261,11.752-11.751c0-6.491-5.261-11.752-11.752-11.752C53.668,6.35,48.453,11.517,48.355,17.922z M40.656,41.984
		c6.491,0,11.752-5.262,11.752-11.752s-5.262-11.751-11.752-11.751c-6.49,0-11.754,5.262-11.754,11.752S34.166,41.984,40.656,41.984
		z M45.641,42.785h-9.972c-8.297,0-15.047,6.751-15.047,15.048v12.195l0.031,0.191l0.84,0.263
		c7.918,2.474,14.797,3.299,20.459,3.299c11.059,0,17.469-3.153,17.864-3.354l0.785-0.397h0.084V57.833
		C60.688,49.536,53.938,42.785,45.641,42.785z M65.084,30.653h-9.895c-0.107,3.959-1.797,7.524-4.47,10.088
		c7.375,2.193,12.771,9.032,12.771,17.11v3.758c9.77-0.358,15.4-3.127,15.771-3.313l0.785-0.398h0.084V45.699
		C80.13,37.403,73.38,30.653,65.084,30.653z M20.035,29.853c2.299,0,4.438-0.671,6.25-1.814c0.576-3.757,2.59-7.04,5.467-9.276
		c0.012-0.22,0.033-0.438,0.033-0.66c0-6.491-5.262-11.752-11.75-11.752c-6.492,0-11.752,5.261-11.752,11.752
		C8.283,24.591,13.543,29.853,20.035,29.853z M30.589,40.741c-2.66-2.551-4.344-6.097-4.467-10.032
		c-0.367-0.027-0.73-0.056-1.104-0.056h-9.971C6.75,30.653,0,37.403,0,45.699v12.197l0.031,0.188l0.84,0.265
		c6.352,1.983,12.021,2.897,16.945,3.185v-3.683C17.818,49.773,23.212,42.936,30.589,40.741z"/>
		</symbol>
		<symbol id="nmgr-icon-crowdfund" viewBox="0 0 226.871 289.16375" style="enable-background:new 0 0 226.871 231.331;">
			<g>
				<ellipse transform="matrix(0.9739 -0.2268 0.2268 0.9739 -0.4641 40.9585)" cx="178.008" cy="22.499" rx="22.495" ry="22.494"/>
				<path d="M192.507,57.061c1.895-2.057,4.575-3.231,7.363-3.231c2.508,0,4.909,0.933,6.76,2.629   c4.063,3.728,4.338,10.067,0.609,14.13c-1.02,1.092-6.381,6.62-15.283,12.109c-1.461,0.899-2.942,1.743-4.438,2.543   c2.177,11.648,3.987,24.854,2.399,36.694c-0.108,1.839-0.129,3.446-0.066,4.862c-0.003,0.066-0.014,0.129-0.016,0.195   l-2.461,91.499c-0.186,6.901,5.259,12.646,12.16,12.832c0.114,0.003,0.229,0.005,0.342,0.005c6.748,0,12.308-5.378,12.49-12.165   l2.262-84.103c5.022-2.17,9.283-6.655,11.043-15.711c2.586-22.216,1.124-35.347-5.682-55.521   c-5.034-14.643-17.41-19.278-25.946-17.15c-6.742,1.681-10.497,9.465-10.365,17.566C189.285,60.483,192.471,57.102,192.507,57.061z   "/>
				<ellipse transform="matrix(0.5577 -0.83 0.83 0.5577 -3.003 86.2386)" cx="79.419" cy="45.937" rx="22.494" ry="22.495"/>
				<path d="M125.499,65.995c-15.166-8.833-0.333,15.167-4.531,21.007c-1.357,1.888-15.734,6.734-24.603,16.633   c-15.786-4.374-25.34-11.938-31.348-18.747c-1.833-2.094-3.312-4.121-4.503-5.969c1.355-6.373,0.036-12.798-4.668-16.066   c-7.226-5.018-20.441-5.077-30.344,6.826C11.979,86.124,5.953,97.881,0.487,119.569c-2.024,11.73,2.547,17.82,8.497,21.482   c1.839,4.703,4.451,13.494,4.442,25.476c-0.015,12.264-2.658,27.965-11.972,46.737c-3.074,6.182-0.553,13.684,5.628,16.758   c1.787,0.889,3.684,1.309,5.553,1.309c4.596,0.001,9.02-2.544,11.206-6.938c11.003-22.1,14.602-41.914,14.587-57.865   c-0.011-14.093-2.742-25.077-5.313-32.309c2.724-11.271,8.826-22.583,14.808-32.438c-0.24-0.267-0.477-0.534-0.705-0.797   c-8.969-10.268-12.012-19.666-12.531-21.445c-1.488-5.347,1.629-10.873,6.94-12.355c0.42-0.116,0.847-0.202,1.275-0.264   c0.469-0.067,0.94-0.105,1.412-0.105c4.442,0,8.396,2.984,9.615,7.26c0.053,0.162,0.127,0.384,0.242,0.697   c0.229,0.616,0.639,1.627,1.286,2.945c0.762,1.545,1.918,3.62,3.552,5.946c0.928,1.321,2.006,2.722,3.263,4.157   c7.849,8.894,18.563,15.107,31.896,18.543c2.413,0.622,4.902,1.164,7.486,1.603c5.36,0.9,9.007,5.935,8.233,11.288   c-0.011,0.077-0.014,0.152-0.026,0.229c-0.809,4.836-4.952,8.347-9.852,8.347c-0.546,0-1.105-0.046-1.659-0.138   c-2.905-0.481-5.672-1.061-8.321-1.716c0.912,4.265,2.915,8.953,6.343,14.104c21.462,32.25,59.118,9.215,63.628-7.25   c2.89-10.548,1.328-27.241-13.623-38.487c-4.659-0.338-9.333-1.121-13.95-2.35c-5.327-1.419-8.509-6.906-7.092-12.235   c1.166-4.375,5.137-7.43,9.656-7.43c0.868,0,1.735,0.114,2.581,0.34c0.864,0.229,1.73,0.431,2.596,0.618   c0.612-1.137,1.324-2.294,2.166-3.456C147.157,63.168,131.322,69.386,125.499,65.995z M156.666,124.995   c-5.333-16.333-15.667-28-15.667-28S157.333,104.995,156.666,124.995z"/>
				<path d="M100.009,125.829c3.219,0,6.114-1.953,7.353-4.889c0.238-0.564,0.422-1.161,0.527-1.791   c0.729-4.357-2.211-8.479-6.568-9.211c-2.955-0.501-5.715-1.116-8.323-1.808c-16.319-4.333-26.108-12.058-32.232-18.993   c-1.03-1.178-1.939-2.33-2.759-3.447c-1.988-2.706-3.4-5.175-4.345-7.093c-0.667-1.354-1.108-2.437-1.365-3.128   c-0.13-0.348-0.212-0.598-0.257-0.735c-0.02-0.056-0.03-0.094-0.036-0.112c-1.205-4.229-5.603-6.693-9.841-5.512   c-0.335,0.094-0.655,0.213-0.967,0.345c-3.654,1.542-5.684,5.589-4.591,9.51c0.227,0.777,2.939,10.191,12.121,20.707   c0.092,0.106,0.196,0.214,0.29,0.32c8.012,9.101,21.027,18.785,40.645,23.828c2.864,0.736,5.866,1.375,9.017,1.896   C99.124,125.792,99.57,125.829,100.009,125.829z"/>
				<path d="M127.267,80.27c-1.137,4.271,1.404,8.652,5.674,9.789c3.402,0.905,6.735,1.536,9.987,1.937   c2.96,0.365,5.853,0.541,8.662,0.541c14.438-0.008,26.531-4.438,35.535-9.351c1.327-0.725,2.59-1.459,3.78-2.191   c9.288-5.726,14.51-11.385,14.86-11.758c2.986-3.256,2.768-8.317-0.488-11.303c-3.252-2.982-8.303-2.771-11.291,0.475v-0.001   c-0.193,0.213-3.9,4.08-10.166,8.134c-0.648,0.42-1.315,0.841-2.019,1.261c-7.51,4.499-17.889,8.74-30.212,8.734   c-3.896,0-8.009-0.424-12.342-1.403c-0.725-0.164-1.454-0.339-2.191-0.535C132.787,73.46,128.405,76.001,127.267,80.27z"/>
			</g>
		</symbol>
		<symbol id="nmgr-icon-contribution" viewBox="0 0 30 37.5" enable-background="new 0 0 30 30">
			<g>
				<g>
					<path d="M-74.561,20.195v-8.459c-0.267,0.088-0.528,0.16-0.777,0.211c-0.125,0.026-0.272,0.067-0.417,0.107v6.947h-38.204V3.481    h17.202c0.177-0.42,0.376-0.821,0.604-1.194h-19v17.908h3.398L-117,22.146l6.241,16.785l38.046-14.146l-1.707-4.59H-74.561z     M-91.335,20.195c0.333,0.499,0.636,1.037,0.86,1.641c1.188,3.193,0.188,6.511-2.232,7.411c-2.421,0.9-5.346-0.959-6.532-4.152    c-0.646-1.738-0.626-3.498-0.101-4.9H-91.335z M-110.057,37.396l-5.409-14.547l7.137-2.654h3.426l-9.028,3.357l4.576,12.309    l33.571-12.481l-1.184-3.184h1.273l1.445,3.887L-110.057,37.396z M-108.01,30.054c-0.824,0.307-1.741-0.112-2.047-0.937    c-0.307-0.824,0.113-1.742,0.938-2.049c0.824-0.307,1.741,0.114,2.048,0.938C-106.765,28.83-107.185,29.748-108.01,30.054z"/>
				</g>
				<g>
					<path d="M-97.188,4.675h-15.577v13.132h25.973c-0.862-0.108-1.625-0.521-2.168-1.228c-0.649-0.843-0.701-1.633-0.631-2.148    c0.172-1.262,1.188-2.169,2.055-2.818c1.547-1.161,5.395-4.317,6.577-5.579c-0.396-0.373-1.138-0.902-1.936-1.359h-7.121    c-0.528,0.476-0.954,1.098-1.268,1.875c-0.064,0.161-0.122,0.31-0.183,0.463c0.792,1.105,1.286,2.587,1.286,4.229    c0,3.407-2.093,6.168-4.675,6.168c-2.583,0-4.676-2.761-4.676-6.168c0-2.068,0.778-3.889,1.962-5.008    C-97.469,5.708-97.343,5.186-97.188,4.675z M-109.481,12.833c-0.879,0-1.592-0.713-1.592-1.592c0-0.88,0.713-1.593,1.592-1.593    c0.88,0,1.593,0.713,1.593,1.593C-107.889,12.12-108.602,12.833-109.481,12.833z"/>
				</g>
				<g>
					<path d="M-84.09,17.053c-0.203,0.161-0.333,0.261-0.377,0.291c-0.284,0.189-0.764,0.379-1.312,0.464h8.831v-5.332    C-78.524,13.131-80.813,14.443-84.09,17.053z"/>
				</g>
				<g>
					<path d="M-78.612-5.328C-85.775-5.129-91.645-0.95-94.53,1.935c-2.886,2.885-2.486,10.363-2.089,10.347    c2.487-0.1,2.189-1.492,4.079-6.168c1.891-4.676,6.666-3.88,8.357-3.283s4.576,2.487,4.477,3.283s-6.069,5.571-7.263,6.467    c-1.194,0.895-2.189,1.99-1.194,3.283s2.586,0.696,2.885,0.498c0.298-0.199,5.67-4.775,9.551-5.572    c3.88-0.796,10.944-7.331,10.944-7.331l-6.168-8.289C-70.952-4.83-71.449-5.526-78.612-5.328z"/>
				</g>
				<g>
					<rect x="-66.377" y="-10.75" transform="matrix(-0.8146 0.5801 -0.5801 -0.8146 -117.305 30.5842)" width="5.672" height="14.584"/>
				</g>
			</g>
			<g>
				<g>
					<path d="M-19.707,18.91v-5.64c-0.178,0.059-0.352,0.107-0.518,0.141c-0.083,0.017-0.182,0.045-0.278,0.071v4.631h-25.469V7.767    h11.468c0.118-0.28,0.251-0.547,0.402-0.796h-12.666V18.91h2.266L-48,20.21l4.161,11.19l25.364-9.431l-1.138-3.06h-0.094V18.91z     M-30.89,18.91c0.223,0.333,0.424,0.691,0.574,1.094c0.792,2.129,0.125,4.34-1.488,4.94c-1.614,0.601-3.564-0.639-4.355-2.768    c-0.431-1.159-0.417-2.332-0.067-3.267L-30.89,18.91L-30.89,18.91z M-43.371,30.377l-3.606-9.698l4.758-1.769h2.284l-6.019,2.238    l3.051,8.206l22.381-8.321l-0.79-2.123h0.849l0.963,2.591L-43.371,30.377z M-42.006,25.482c-0.55,0.204-1.161-0.075-1.365-0.625    s0.075-1.162,0.625-1.366c0.549-0.205,1.161,0.076,1.365,0.625C-41.177,24.667-41.457,25.278-42.006,25.482z"/>
				</g>
				<g>
					<path d="M-34.792,8.563h-10.384v8.755h17.315c-0.575-0.072-1.083-0.348-1.446-0.818c-0.433-0.562-0.467-1.089-0.42-1.432    c0.114-0.841,0.792-1.446,1.37-1.879c1.032-0.773,3.597-2.878,4.384-3.719c-0.264-0.249-0.759-0.602-1.291-0.906h-4.747    c-0.352,0.317-0.636,0.732-0.845,1.25c-0.043,0.107-0.082,0.207-0.122,0.309c0.528,0.737,0.857,1.725,0.857,2.819    c0,2.271-1.396,4.112-3.117,4.112c-1.722,0-3.117-1.841-3.117-4.112c0-1.379,0.519-2.592,1.308-3.338    C-34.979,9.252-34.896,8.904-34.792,8.563z M-42.988,14.002c-0.586,0-1.062-0.476-1.062-1.062s0.476-1.062,1.062-1.062    c0.587,0,1.062,0.475,1.062,1.062C-41.926,13.526-42.401,14.002-42.988,14.002z"/>
				</g>
				<g>
					<path d="M-26.06,16.815c-0.135,0.107-0.222,0.174-0.251,0.194c-0.189,0.126-0.509,0.252-0.875,0.309h5.887v-3.555    C-22.35,14.201-23.875,15.075-26.06,16.815z"/>
				</g>
				<g>
					<path d="M-22.408,1.895c-4.775,0.133-8.688,2.919-10.612,4.842c-1.924,1.924-1.658,6.909-1.393,6.898    c1.658-0.066,1.459-0.995,2.719-4.112c1.261-3.117,4.444-2.587,5.572-2.189c1.127,0.398,3.05,1.658,2.985,2.189    c-0.066,0.53-4.046,3.714-4.842,4.311s-1.459,1.327-0.796,2.189c0.664,0.862,1.724,0.464,1.923,0.332s3.78-3.184,6.367-3.714    c2.587-0.531,7.296-4.887,7.296-4.887l-4.112-5.526C-17.301,2.227-17.632,1.762-22.408,1.895z"/>
				</g>
				<g>
					<rect x="-14.25" y="-1.721" transform="matrix(-0.8146 0.5801 -0.5801 -0.8146 -20.6059 12.868)" width="3.781" height="9.722"/>
				</g>
			</g>
			<g>
				<g>
					<path d="M21.22,17.868v-4.229c-0.134,0.044-0.264,0.08-0.389,0.105c-0.062,0.013-0.136,0.034-0.208,0.054v3.474H1.521v-7.76h8.601    c0.089-0.21,0.188-0.411,0.302-0.597h-9.5v8.954h1.699L0,18.843l3.121,8.393l19.023-7.073l-0.853-2.295H21.22z M12.833,17.868    c0.167,0.25,0.318,0.518,0.43,0.821c0.594,1.597,0.094,3.255-1.116,3.705c-1.211,0.451-2.673-0.479-3.266-2.076    c-0.323-0.869-0.313-1.749-0.05-2.45C8.831,17.868,12.833,17.868,12.833,17.868z M3.472,26.468l-2.705-7.273l3.569-1.327h1.713    l-4.514,1.678l2.288,6.155l16.786-6.241l-0.592-1.592h0.637l0.723,1.943L3.472,26.468z M4.495,22.797    c-0.412,0.153-0.871-0.057-1.024-0.468c-0.153-0.412,0.057-0.872,0.469-1.024c0.412-0.153,0.871,0.057,1.024,0.469    C5.117,22.186,4.908,22.644,4.495,22.797z"/>
				</g>
				<g>
					<path d="M9.906,10.108H2.118v6.566h12.987c-0.431-0.054-0.813-0.261-1.084-0.614c-0.325-0.421-0.351-0.816-0.315-1.074    c0.086-0.63,0.594-1.084,1.027-1.409c0.774-0.58,2.698-2.158,3.288-2.789c-0.198-0.187-0.569-0.451-0.968-0.68h-3.56    c-0.264,0.237-0.477,0.549-0.634,0.937c-0.032,0.081-0.061,0.155-0.091,0.232c0.396,0.552,0.643,1.293,0.643,2.114    c0,1.704-1.047,3.084-2.338,3.084c-1.292,0-2.338-1.381-2.338-3.084c0-1.034,0.389-1.944,0.981-2.503    C9.766,10.625,9.828,10.363,9.906,10.108z M3.759,14.187c-0.439,0-0.796-0.357-0.796-0.796s0.357-0.796,0.796-0.796    c0.44,0,0.796,0.356,0.796,0.796S4.199,14.187,3.759,14.187z"/>
				</g>
				<g>
					<path d="M16.455,16.297c-0.101,0.081-0.167,0.13-0.188,0.145c-0.142,0.095-0.382,0.189-0.656,0.232h4.416v-2.666    C19.238,14.336,18.094,14.992,16.455,16.297z"/>
				</g>
				<g>
					<path d="M19.194,5.106c-3.582,0.1-6.516,2.189-7.959,3.631c-1.443,1.443-1.243,5.182-1.044,5.173    c1.243-0.05,1.094-0.746,2.039-3.084c0.946-2.338,3.333-1.94,4.179-1.642s2.288,1.244,2.239,1.642    c-0.05,0.398-3.035,2.786-3.631,3.233c-0.597,0.448-1.095,0.995-0.597,1.642c0.498,0.647,1.293,0.348,1.442,0.249    c0.149-0.1,2.835-2.388,4.775-2.786c1.94-0.398,5.472-3.665,5.472-3.665l-3.084-4.145C23.024,5.355,22.776,5.007,19.194,5.106z"/>
				</g>
				<g>
					<rect x="25.313" y="2.394" transform="matrix(-0.8146 0.5801 -0.5801 -0.8146 52.0089 -4.5464)" width="2.836" height="7.291"/>
				</g>
			</g>
			<g>
				<g>
					<path d="M50.146,16.826v-2.82c-0.089,0.029-0.176,0.054-0.259,0.07c-0.041,0.009-0.091,0.022-0.139,0.036v2.315H37.014v-5.173    h5.733c0.06-0.14,0.126-0.274,0.201-0.398h-6.333v5.969h1.133L36,17.476l2.081,5.595l12.682-4.715l-0.568-1.53    C50.195,16.826,50.146,16.826,50.146,16.826z M44.555,16.826c0.111,0.167,0.212,0.345,0.287,0.547    c0.396,1.064,0.063,2.17-0.744,2.47c-0.807,0.301-1.782-0.319-2.177-1.384c-0.216-0.579-0.209-1.166-0.034-1.633H44.555z     M38.314,22.559l-1.803-4.849l2.379-0.884h1.142l-3.009,1.119l1.525,4.104l11.19-4.161l-0.395-1.061h0.425l0.481,1.295    L38.314,22.559z M38.997,20.112c-0.274,0.102-0.58-0.038-0.683-0.313c-0.102-0.274,0.038-0.581,0.313-0.683    c0.275-0.103,0.581,0.038,0.683,0.313S39.272,20.01,38.997,20.112z"/>
				</g>
				<g>
					<path d="M42.604,11.652h-5.192v4.377h8.658c-0.288-0.036-0.542-0.174-0.723-0.409c-0.216-0.281-0.234-0.544-0.21-0.716    c0.058-0.42,0.396-0.723,0.685-0.939c0.516-0.387,1.798-1.438,2.192-1.859c-0.132-0.124-0.379-0.301-0.645-0.453h-2.374    c-0.176,0.158-0.318,0.366-0.423,0.625c-0.021,0.054-0.041,0.104-0.061,0.154c0.264,0.368,0.429,0.862,0.429,1.409    c0,1.136-0.698,2.057-1.559,2.057c-0.861,0-1.559-0.921-1.559-2.057c0-0.689,0.259-1.296,0.654-1.669    C42.51,11.997,42.552,11.823,42.604,11.652z M38.506,14.372c-0.293,0-0.531-0.238-0.531-0.531s0.238-0.53,0.531-0.53    s0.531,0.237,0.531,0.53S38.799,14.372,38.506,14.372z"/>
				</g>
				<g>
					<path d="M46.97,15.778c-0.067,0.054-0.111,0.087-0.126,0.097c-0.095,0.063-0.255,0.126-0.438,0.155h2.944v-1.777    C48.825,14.471,48.063,14.908,46.97,15.778z"/>
				</g>
				<g>
					<path d="M48.796,8.318c-2.388,0.066-4.344,1.459-5.306,2.421s-0.829,3.454-0.696,3.449c0.829-0.033,0.729-0.498,1.359-2.056    c0.631-1.559,2.222-1.293,2.786-1.094c0.563,0.199,1.525,0.829,1.492,1.094c-0.033,0.266-2.023,1.857-2.421,2.156    s-0.729,0.664-0.398,1.094c0.332,0.431,0.862,0.232,0.961,0.166s1.891-1.592,3.184-1.857c1.294-0.266,3.648-2.443,3.648-2.443    l-2.057-2.763C51.349,8.484,51.184,8.252,48.796,8.318z"/>
				</g>
				<g>
					<rect x="52.877" y="6.508" transform="matrix(-0.8146 0.5801 -0.5801 -0.8146 102.849 -15.0011)" width="1.891" height="4.861"/>
				</g>
			</g>
		</symbol>
	</defs>
</svg>
